<?xml version="1.0" standalone="no"?>
<!DOCTYPE svg PUBLIC "-//W3C//DTD SVG 20010904//EN"
 "http://www.w3.org/TR/2001/REC-SVG-20010904/DTD/svg10.dtd">
<svg version="1.0" xmlns="http://www.w3.org/2000/svg"
 width="270.000000pt" height="270.000000pt" viewBox="0 0 270.000000 270.000000"
 preserveAspectRatio="xMidYMid meet">
<metadata>
Created by potrace 1.11, written by Peter Selinger 2001-2013
</metadata>
<g transform="translate(0.000000,270.000000) scale(0.100000,-0.100000)"
fill="#000000" stroke="none">
<path d="M1188 2685 c-566 -81 -1001 -463 -1138 -1000 -57 -222 -60 -428 -10
-640 121 -515 522 -906 1043 -1016 147 -32 390 -32 537 0 273 58 487 176 686
375 199 200 313 416 371 702 26 131 24 375 -5 511 -88 411 -349 750 -721 938
-225 113 -526 164 -763 130z m-188 -540 c0 -2 -43 -34 -95 -70 l-95 -66 0
-487 0 -487 261 -154 c143 -84 268 -155 277 -157 10 -2 136 67 282 154 l265
157 3 486 2 486 -100 67 c-55 37 -100 69 -100 72 0 4 28 -7 210 -81 l125 -52
2 -504 2 -504 -337 -225 c-185 -124 -344 -225 -352 -224 -8 0 -167 103 -353
228 l-337 227 2 500 3 501 165 68 c191 79 170 71 170 65z m121 -524 c23 -28
26 -118 5 -146 -12 -17 -12 -22 0 -39 9 -13 14 -47 14 -94 l0 -73 -27 3 c-26
3 -28 7 -31 53 -4 79 -10 95 -35 95 -21 0 -22 -4 -22 -73 l0 -72 -30 0 -30 0
-3 175 c-1 96 0 181 3 188 4 11 21 13 71 10 55 -3 70 -8 85 -27z m107 -134 c2
-157 3 -158 25 -155 21 3 22 7 27 158 l5 155 28 3 27 3 0 -166 c0 -163 0 -166
-25 -190 -34 -35 -93 -34 -126 1 -23 24 -24 33 -27 176 -2 82 -1 156 2 165 4
9 16 13 33 11 l28 -3 3 -158z m279 141 c12 -13 24 -38 28 -55 6 -31 5 -33 -23
-33 -24 0 -31 5 -36 26 -5 19 -12 25 -29 22 -41 -6 -32 -41 26 -107 74 -83 83
-134 34 -188 -15 -16 -32 -23 -59 -23 -52 0 -88 35 -88 85 0 32 2 35 30 35 27
0 30 -3 30 -30 0 -25 4 -30 25 -30 21 0 25 5 25 30 0 22 -13 45 -50 85 -27 30
-52 66 -56 80 -10 39 4 93 29 110 33 23 90 19 114 -7z m111 -60 l3 -78 29 0
30 0 0 80 0 80 30 0 30 0 0 -190 0 -190 -30 0 -30 0 0 80 0 80 -30 0 -29 0 -3
-77 -3 -78 -30 0 -30 0 -3 175 c-1 96 0 180 3 188 3 8 16 12 32 10 28 -3 28
-4 31 -80z m-1168 -103 l0 -25 -135 0 -135 0 0 25 0 25 135 0 135 0 0 -25z
m2070 0 l0 -25 -135 0 -135 0 0 25 0 25 135 0 135 0 0 -25z m-1540 -282 c1
-17 1 -17 11 -1 8 14 21 17 59 16 l50 -2 0 -53 c0 -29 -4 -53 -10 -53 -5 0
-10 11 -10 25 0 23 -2 24 -20 15 -11 -6 -20 -17 -20 -25 0 -21 -37 -19 -49 3
-10 16 -10 16 -11 0 0 -10 -4 -18 -10 -18 -5 0 -10 25 -10 55 0 30 5 55 10 55
6 0 10 -8 10 -17z m230 -2 c9 -15 9 -14 10 1 0 12 9 16 38 15 33 -2 37 -5 37
-29 1 -15 4 -30 8 -34 4 -4 7 9 7 30 l0 37 48 -3 47 -3 3 -52 c2 -32 -1 -53
-7 -53 -6 0 -12 10 -12 23 l-2 22 -4 -23 c-4 -21 -9 -22 -71 -20 l-67 3 4 44
c3 54 -14 47 -24 -9 -7 -43 -25 -55 -25 -17 0 12 -3 33 -7 45 -4 18 -8 20 -14
10 -7 -11 -11 -10 -19 2 -7 11 -10 5 -10 -25 0 -29 3 -36 10 -25 11 18 25 7
17 -15 -8 -20 -43 -19 -51 1 -10 25 -7 69 5 81 17 17 68 13 79 -6z m230 -26
c0 -34 4 -45 16 -45 12 0 15 9 12 42 -2 35 1 43 16 46 10 2 23 -1 29 -7 8 -8
6 -11 -6 -11 -20 0 -23 -26 -4 -33 9 -4 8 -8 -3 -16 -13 -10 -13 -12 0 -20 19
-13 19 -12 28 40 9 55 34 60 43 9 l6 -35 2 33 c1 36 23 51 46 32 10 -9 15 -9
15 -1 0 6 5 11 10 11 6 0 11 -24 12 -52 l2 -53 3 51 c4 50 4 51 38 52 19 1 37
-3 40 -8 3 -6 -1 -10 -9 -10 -19 0 -21 -26 -3 -33 9 -4 8 -8 -3 -16 -13 -9
-12 -12 5 -26 19 -14 18 -15 -15 -13 -20 1 -41 -1 -47 -5 -6 -4 -19 0 -27 9
-9 8 -16 11 -16 5 0 -14 -62 -11 -73 4 -6 7 -10 6 -14 -2 -3 -9 -26 -13 -64
-13 l-59 0 0 55 c0 30 5 55 10 55 6 0 10 -20 10 -45z"/>
<path d="M1030 1535 c0 -56 12 -69 38 -43 16 16 16 70 0 86 -26 26 -38 13 -38
-43z"/>
<path d="M1005 1161 c-3 -10 -1 -29 4 -42 9 -21 10 -19 10 19 1 45 -4 54 -14
23z"/>
<path d="M1040 1166 c0 -9 5 -16 10 -16 6 0 10 4 10 9 0 6 -4 13 -10 16 -5 3
-10 -1 -10 -9z"/>
<path d="M1271 1164 c0 -11 3 -14 6 -6 3 7 2 16 -1 19 -3 4 -6 -2 -5 -13z"/>
<path d="M1330 1165 c0 -8 5 -15 12 -15 9 0 9 -3 0 -12 -16 -16 -15 -25 3 -32
12 -4 15 3 15 34 0 29 -4 40 -15 40 -8 0 -15 -7 -15 -15z"/>
<path d="M1381 1164 c0 -11 3 -14 6 -6 3 7 2 16 -1 19 -3 4 -6 -2 -5 -13z"/>
<path d="M1602 1145 c0 -23 3 -30 5 -17 2 12 12 22 21 23 14 0 14 2 2 6 -8 3
-18 11 -22 17 -4 6 -7 -7 -6 -29z"/>
</g>
</svg>
