<svg xmlns="http://www.w3.org/2000/svg" viewBox="0 0 2041.36 1394.7"><title>Ресурс 4</title><g id="Слой_2" data-name="Слой 2"><g id="Layer1"><path d="M1330,.07,1619.21,118v788.6c0,24.67-.36,49.34.2,74,.19,8.57-2.28,13.65-9.65,18.58q-160.85,107.45-321.25,215.56l-258.05,173.4c-3.29,2.21-6.62,4.34-10,6.56-3.78-2.44-7.15-4.55-10.45-6.77q-289.59-194.57-579.3-389c-7.38-4.95-9.64-10-9.63-18.58q.32-425,.18-850V118.18L710.88,0l1,1.78c-2.85,2-5.66,4.12-8.55,6.09C652.06,42.72,600.88,77.69,549.44,112.26c-6.31,4.24-8.52,8.64-8.52,16.19q.31,414.48,0,829c0,7.79,2,12.42,9.1,16.6q230.5,135.47,460.58,271.67c7.35,4.35,12.39,4.2,19.66-.1q230.08-136.19,460.56-271.72c6.17-3.63,8.73-7.46,8.72-14.79q-.28-416,0-832c0-6.83-2.23-10.8-7.79-14.54q-76.67-51.69-153-103.85c-3.26-2.22-6.45-4.53-9.67-6.8Z"/><path d="M785.76,758.8c-1.22-6.83-3-12.62-3.16-18.45-.59-22.64-.48-45.3-1-67.94A145.64,145.64,0,0,0,779,647.68c-2.2-11-10-17.43-20.79-18.75-8.46-1-17.14-.21-26.77-.21V758.12h-50V438.86c2.66-.27,5.2-.74,7.74-.74,24-.05,48-.5,72,.2a118.39,118.39,0,0,1,31.39,4.87c24.22,7.54,35.73,26.45,37.81,50.25a380.08,380.08,0,0,1,0,60.82c-1.4,19-10.09,35.07-27.31,45.26l-2.31,1.36c.69,1.05.8,1.46,1.06,1.59,20,10.24,27.75,28.21,29.08,49.11,1.37,21.57,1.24,43.25,1.58,64.89.22,13.64-.31,27.32,4.69,41.19-8.59,2.21-16.8.83-24.86,1.08C804,759,795.72,758.8,785.76,758.8ZM731.81,484.34v97.11c10.46,1,20.33,1.41,30.09-1,9.1-2.27,16-7.6,17.42-17.13a215.87,215.87,0,0,0,0-62.5,10.87,10.87,0,0,0-.53-1.92c-3-8.83-9.22-13.91-18.38-14.42S741.91,484.34,731.81,484.34Z"/><path d="M1199.89,438.51h49.57V574H1307V438.72h51.11v320h-50.67V622.67c-8-2.25-45.26-2.64-57.34-.7V758.05h-50.18Z"/><path d="M961.1,438.43h47.06c.29,2.81.77,5.35.77,7.89q0,119-.09,238a130.2,130.2,0,0,1-2.07,21.84c-5.39,31.15-24.84,50.61-56.07,55.52A103.53,103.53,0,0,1,908,759.92c-20.77-5.47-35.2-18.24-43.07-38.26-4.83-12.27-6.42-25.08-6.4-38.2q.1-62.49,0-125,0-54,0-108V438.84h50.37v11.61q0,116,.09,232a74.28,74.28,0,0,0,2.16,18.74c2.68,10.08,11.06,15.28,23,15.5,12.66.24,21.63-4.61,24.46-14.78A78.43,78.43,0,0,0,961,681.2q.24-115,.1-230C961.1,447.29,961.1,443.36,961.1,438.43Z"/><path d="M1029.32,660.51h46.06c.17,3.74.35,7.26.5,10.79.36,8.65,0,17.4,1.23,25.92,1.83,12.81,11,19.48,24.92,19.46s22.59-6.61,24.94-19.52c2.86-15.71.36-30.43-8.23-44.09-9.54-15.16-22.81-26.85-35.49-39.14-9.33-9-18.85-18-27.26-27.81-25-29.23-31.81-63.05-23.3-100.13,6.74-29.37,24.94-46.44,54.57-50.9a104,104,0,0,1,41.71,1.68c20,5.18,34.22,17.28,42.07,36.55,6.8,16.7,7.73,34.17,7.19,53.31-8.06.06-15.58.14-23.1.17s-15.28,0-24.21,0c-.12-4.31-.06-8.17-.38-12-.54-6.29-.67-12.71-2.15-18.79-2.48-10.13-10.3-15.44-21.57-15.85-12.76-.46-21.27,4.19-24.32,14.77-4.5,15.63-3.62,31.29,4.88,45.39a154.22,154.22,0,0,0,18.79,24.48c8.11,8.81,17.25,16.66,26,24.9,13.87,13.11,26.7,27,35.35,44.31,14.08,28.09,14.87,57.18,4.9,86.38-8.32,24.37-26.86,37.5-51.92,41.25-14.24,2.14-28.62,2-42.69-1.72-20.38-5.34-34.88-17.74-42.63-37.36-2.67-6.76-5.1-14-5.58-21.15C1028.69,688.2,1029.32,674.88,1029.32,660.51Z"/><path d="M230.73,573.39v42.06H0V573.39Z"/><path d="M1809.75,615.36V572.74h230.11c2.53,7.22,1.05,14.2,1.3,21s.06,13.93.06,21.6Z"/><path d="M965.13,873c9.56,9.79,12.63,27.79,7,39.35a16.84,16.84,0,0,1-15,10.05c-8.93.41-17.89.1-27.57.1V829.23c9.22,0,18.17-.72,26.95.19,10.24,1.06,15.32,6.9,16.13,17.19C973.41,856,973.88,865.46,965.13,873Zm-21.06,8.82v27.08c13,2.22,15.18.57,15.4-11.08,0-1.33,0-2.66,0-4C959.14,882.1,956.88,880.23,944.07,881.8Zm.28-14.67c8.21.78,10.56.08,12.54-3.56,2.37-4.36,2-16.37-1-19.19-3.56-3.38-7.67-2.74-12.41-1,0,6.54-.06,12.81,0,19.07A28.41,28.41,0,0,0,944.35,867.13Z"/><path d="M1072,922.32h-14.86c-.3-3.77-.73-7.33-.84-10.9-.16-5,.15-10-.18-15-.65-9.64-3.14-11.53-14.4-10.72V922H1028.3c-1.91-6.53-2.44-79.85-.51-92.29,9.45,0,19-.49,28.47.16a13.86,13.86,0,0,1,13.2,11.83c2.33,12.56,3.95,25.24-6.32,35.65C1076.35,890,1068.39,906.6,1072,922.32Zm-30.2-50.88c11.82.18,13.73-1.47,14.22-11.28a68.25,68.25,0,0,0,0-7c-.55-10.4-2.93-12.06-14.21-9.71Z"/><path d="M1301.9,829.33h12.76c.29,2.73.78,5.28.79,7.84q.1,30,0,59.94c0,2,0,4-.18,6-1.09,15.27-11.64,23.36-26.64,20.48-8.74-1.68-14.41-6.56-16.1-15.49a49.4,49.4,0,0,1-1.08-8.89c-.09-21.64,0-43.29,0-64.93a44.87,44.87,0,0,1,.56-4.68h14.06c.16,3.38.43,6.62.44,9.86,0,19.31,0,38.63,0,57.94a45.81,45.81,0,0,0,.45,8c.71,3.94,3.76,5.89,7.29,5a10.53,10.53,0,0,0,6.33-5c1.19-2.5.73-5.86.74-8.84,0-19,0-38,0-56.94C1301.44,836.36,1301.72,833.12,1301.9,829.33Z"/><path d="M1265.09,860.24H1251.7c-.21-4.07-.26-7.66-.61-11.21-.51-5.09-3.16-8-7.13-8s-6.74,2.74-7.36,7.76a41.4,41.4,0,0,0-.16,5q0,22.45,0,44.9c0,2.32-.44,5.12.67,6.83a11.84,11.84,0,0,0,6.43,4.9c3.54.83,6.84-1.16,7.15-5.12.47-5.94.28-11.94.21-17.91,0-.83-.73-2.21-1.38-2.39-8.34-2.3-3.7-8.23-4.34-13.43h18.92a38.74,38.74,0,0,1,1.08,6.38c.07,9,.32,18-.2,26.93-.71,12-7.9,18.5-20.08,19.18s-20-5.1-22.67-16.41a4.52,4.52,0,0,1-.22-1c0-20.58-.88-41.22.41-61.72.79-12.52,10-17.75,23.85-16.73,11.16.82,17.82,7.6,18.75,19.41C1265.35,851.49,1265.09,855.45,1265.09,860.24Z"/><path d="M1204,829.31l14.84,92.78h-14.55l-3-15.25h-17.44l-3.29,15.4h-13.07l14.77-92.93Zm-4.64,62.82-6-39.23-2,.11-5.79,39.12Z"/><path d="M727.33,829.25c-5.3,11-9.61,21.43-15.22,31.11-4.3,7.42-4.17,13.81-.82,21.42,5.73,13,10.56,26.43,16.09,40.48H712.44l-14.16-35.78c-8.43,11.58-2.71,23.75-5.61,35.43H679.36V829.45h13.72V864l2.19.63c7.26-11.07,11.17-24,18.22-35.39Z"/><path d="M734.1,828.82c8.39,0,15.71-.36,23,.08,12.89.78,19.31,7.37,20,20.25a177.63,177.63,0,0,1,0,18c-.61,13.11-6.62,19.42-19.49,20.85-1.32.15-2.66.07-4,.18s-2.59.3-4.85.57V922H734.1Zm15.18,14.33v31c12,.68,13.25-.47,13.43-11.59,0-3,.06-5.93,0-8.9C762.46,842.83,760.83,841.53,749.28,843.15Z"/><path d="M1123,829h38.51l.74,12.55h-24.78v26.81h18.75v13.26l-18.73.82v27.57h24.14v12.16h-38C1121.36,915.24,1120.78,842.43,1123,829Z"/><path d="M1361.62,829.2V842h-24.37V868.5H1356v13.12l-18.75,1v27.2h24.22v12.29h-39V829.2Z"/><path d="M854.89,860c-.21-4.4-.11-8.1-.64-11.7-.72-4.81-4-7.67-8-7.22-4.24.47-6.49,3.17-6.94,7.27a75.29,75.29,0,0,0-.24,8q0,19.49,0,39c0,1.33,0,2.67,0,4,.27,8.35,2.47,11.45,8,11.29,5.12-.14,7.17-3,7.47-10.8.13-3.29,0-6.59,0-10.62h13.54c0,5.9.65,11.56-.13,17-1.73,12.11-10,18.33-22.47,17.86s-20.28-7.43-20.62-19.85q-.79-28.46,0-57c.36-11.75,7.71-18.37,19-19.07,13.43-.83,20.9,4.27,23.65,16.23a33.82,33.82,0,0,1,.86,5.91c.14,2.95,0,5.91,0,9.68Z"/><path d="M996.13,868.6h19v13l-19,1v27.2h24.32V922.1H981.43V829.53h39v12.36H996.17A118.94,118.94,0,0,0,996.13,868.6Z"/><path d="M872.85,829.16h15.05l10.77,38.49,1.64-.22,10.41-38.24H923.8c-.55,3-.78,5.61-1.48,8-2.3,8-4.59,16-7.2,23.86-6,18.08-10.92,36.29-8.9,55.64.16,1.57-.33,3.21-.58,5.42H891.37c-.06-5.47-.37-11-.13-16.46a77.3,77.3,0,0,0-3.88-27.43C882.29,862.48,877.93,846.48,872.85,829.16Z"/><path d="M1079.5,829H1093c1.31,26.75-.3,53.46.93,80.87h23.17v12.5H1079.5Z"/><path d="M782.43,829.29h13.63v92.83c-2.31.25-4.22.62-6.14.63-2.28,0-4.57-.3-7.49-.51Z"/></g></g></svg>